<?xml version="1.0" standalone="no"?>
<!DOCTYPE svg PUBLIC "-//W3C//DTD SVG 20010904//EN"
 "http://www.w3.org/TR/2001/REC-SVG-20010904/DTD/svg10.dtd">
<svg version="1.0" xmlns="http://www.w3.org/2000/svg"
 width="145.000000pt" height="145.000000pt" viewBox="0 0 145.000000 145.000000"
 preserveAspectRatio="xMidYMid meet">
<metadata>
Created by potrace 1.14, written by Peter Selinger 2001-2017
</metadata>
<g transform="translate(0.000000,145.000000) scale(0.100000,-0.100000)"
fill="#000000" stroke="none">
<path d="M623 1425 c-77 -35 -113 -99 -128 -229 -3 -28 -7 -51 -8 -52 -1 -1
-51 -18 -112 -39 -195 -66 -315 -137 -351 -207 -20 -39 -20 -102 0 -133 29
-45 59 -56 172 -65 130 -10 142 -19 117 -84 -17 -42 -60 -124 -98 -186 -80
-132 -140 -280 -144 -353 -2 -40 1 -48 19 -55 26 -10 397 -8 427 2 13 4 42 40
69 84 26 42 59 96 73 119 14 23 36 47 48 54 31 17 50 -2 118 -115 30 -50 65
-104 79 -121 l24 -30 207 0 c244 -1 250 1 241 75 -9 77 -60 195 -155 360 -56
96 -99 190 -97 208 4 27 45 42 114 42 156 0 219 54 197 169 -15 77 -146 162
-370 238 l-110 38 -2 40 c-11 166 -82 251 -215 260 -52 4 -73 0 -115 -20z"/>
</g>
</svg>
